<?xml version="1.0" standalone="no"?>
<!DOCTYPE svg PUBLIC "-//W3C//DTD SVG 20010904//EN"
 "http://www.w3.org/TR/2001/REC-SVG-20010904/DTD/svg10.dtd">
<svg version="1.0" xmlns="http://www.w3.org/2000/svg"
 width="700.000000pt" height="700.000000pt" viewBox="0 0 700.000000 700.000000"
 preserveAspectRatio="xMidYMid meet">
<metadata>
Created by potrace 1.11, written by Peter Selinger 2001-2013
</metadata>
<g transform="translate(0.000000,700.000000) scale(0.100000,-0.100000)"
fill="#000000" stroke="none">
<path d="M4477 6364 c-1 -1 -24 -4 -52 -8 -223 -26 -430 -160 -541 -350 -20
-33 -49 -100 -66 -150 -44 -131 -45 -296 -2 -436 37 -124 110 -234 240 -360
217 -211 351 -449 391 -695 14 -82 6 -248 -16 -339 -27 -111 -102 -268 -177
-366 -31 -41 -46 -66 -33 -55 13 11 26 23 29 26 3 4 48 53 101 110 95 104 144
158 190 213 13 16 29 34 34 40 19 20 149 189 202 261 174 239 362 573 428 760
165 473 122 815 -138 1091 -127 134 -253 209 -403 238 -69 14 -180 26 -187 20z"/>
<path d="M2183 6274 c-321 -47 -546 -215 -647 -486 -35 -94 -38 -108 -42 -238
-3 -125 12 -205 61 -316 49 -111 156 -236 255 -299 206 -131 406 -155 660 -82
69 19 139 38 155 41 17 4 41 9 55 11 14 3 54 8 90 12 473 50 842 -146 1036
-550 19 -39 34 -78 34 -86 0 -8 3 -12 6 -8 11 11 -142 469 -201 602 -13 28
-26 61 -30 75 -17 58 -219 455 -291 570 -346 556 -735 813 -1141 754z"/>
<path d="M1545 4340 c-33 -4 -87 -10 -120 -14 -33 -4 -67 -9 -75 -11 -8 -2
-31 -7 -50 -10 -59 -10 -182 -45 -255 -72 -224 -83 -399 -221 -503 -400 -29
-49 -76 -168 -86 -216 -3 -12 -12 -56 -21 -97 -58 -261 68 -565 299 -722 200
-137 463 -168 685 -81 241 95 397 290 456 568 79 371 284 667 560 812 152 79
389 115 590 88 96 -12 38 3 -165 44 -272 55 -292 58 -385 71 -44 6 -93 13
-110 15 -16 3 -64 7 -105 11 -41 3 -86 8 -100 11 -42 8 -551 11 -615 3z"/>
<path d="M5660 4326 c-133 -40 -221 -89 -311 -173 -104 -98 -197 -263 -215
-381 -9 -63 -54 -213 -91 -302 -147 -358 -438 -599 -768 -637 -78 -9 -229 -9
-280 -1 -28 5 -35 4 -23 -3 9 -5 81 -23 160 -39 79 -17 150 -32 159 -34 9 -3
40 -7 70 -11 30 -4 57 -9 60 -11 4 -2 26 -6 50 -8 24 -3 58 -7 74 -10 17 -2
75 -10 130 -16 55 -6 116 -13 135 -16 19 -3 161 -7 315 -9 306 -4 416 5 625
51 401 90 659 289 769 596 62 171 73 351 32 488 -65 215 -223 397 -417 480
-145 63 -335 77 -474 36z"/>
<path d="M2675 3314 c-44 -47 -89 -95 -100 -107 -52 -56 -169 -193 -236 -278
-662 -837 -836 -1522 -496 -1959 172 -220 378 -331 612 -330 50 0 104 2 120 5
214 40 380 146 494 315 82 122 123 253 123 400 -1 129 -21 219 -74 324 -46 91
-76 130 -205 262 -213 219 -324 407 -377 640 -22 99 -18 283 9 391 28 108 95
254 157 338 82 112 78 112 -27 -1z"/>
<path d="M3200 2718 c-1 -22 128 -401 185 -544 304 -764 669 -1240 1076 -1399
299 -118 674 -42 888 178 91 94 171 237 196 353 14 63 14 240 0 304 -56 258
-237 459 -491 546 -70 24 -94 27 -214 27 -111 0 -148 -4 -210 -22 -113 -34
-268 -69 -335 -77 -488 -53 -858 142 -1055 558 -22 46 -40 80 -40 76z"/>
</g>
</svg>
