<svg width="23" height="41" viewBox="0 0 23 41" xmlns="http://www.w3.org/2000/svg"><title>facebook</title><path d="M14.083 41h-8.25c-.55 0-.916-.357-.916-.891V22.283H1.25c-.55 0-.917-.357-.917-.892v-7.13c0-.535.367-.891.917-.891h3.667V8.735c0-2.585.733-4.724 2.291-6.24C8.95.803 11.425 0 14.725 0h6.692c.55 0 .916.357.916.891v7.13c0 .536-.366.892-.916.892h-5.042c-.458 0-1.283.624-1.375.891v3.566h6.142c.275 0 .458.089.641.267.184.178.275.446.275.713-.275 3.565-.825 7.13-.825 7.22-.091.445-.458.802-.916.802H15v17.826c0 .445-.367.802-.917.802zM6.75 39.217h6.417V21.391c0-.534.366-.891.916-.891h5.5c.184-1.07.459-3.12.642-5.348h-6.142c-.55 0-.916-.356-.916-.891V9.715c0-1.248 1.925-2.585 3.208-2.585H20.5V1.783h-5.775c-2.75 0-4.858.624-6.142 1.96C7.3 4.903 6.75 6.596 6.75 8.735v5.526c0 .535-.367.891-.917.891H2.167V20.5h3.666c.55 0 .917.357.917.891v17.826z" fill="#BCA2A2" fill-rule="evenodd"/></svg>