<svg width="41" height="40" viewBox="0 0 41 40" xmlns="http://www.w3.org/2000/svg"><title>Page 1</title><g fill="#BCA2A2" fill-rule="evenodd"><path d="M7.778 1.778c-2.934 0-5.334 2.4-5.334 5.333v25.245c0 2.933 2.4 5.333 5.334 5.333h25.244c2.934 0 5.334-2.4 5.334-5.333V7.11c0-2.933-2.4-5.333-5.334-5.333H7.778zm25.244 37.689H7.778c-3.911 0-7.111-3.2-7.111-7.111V7.11C.667 3.2 3.867 0 7.777 0h25.245c3.911 0 7.111 3.2 7.111 7.111v25.245c0 3.91-3.2 7.11-7.11 7.11z"/><path d="M20.133 15.111c-3.11 0-5.689 2.578-5.689 5.689s2.578 5.689 5.69 5.689c3.11 0 5.688-2.578 5.688-5.689a5.671 5.671 0 0 0-5.689-5.689m0 13.156c-4.089 0-7.466-3.378-7.466-7.467 0-4.089 3.377-7.467 7.466-7.467 4.09 0 7.467 3.378 7.467 7.467 0 4.178-3.289 7.467-7.467 7.467"/><path d="M20.133 11.2c-5.333 0-9.6 4.356-9.6 9.6s4.356 9.689 9.6 9.689c5.245 0 9.6-4.356 9.6-9.6 0-5.245-4.266-9.689-9.6-9.689m0 21.067c-6.31 0-11.377-5.156-11.377-11.378 0-6.311 5.155-11.378 11.377-11.378 6.311 0 11.378 5.156 11.378 11.378.089 6.222-5.067 11.378-11.378 11.378M31.067 5.156c-.534 0-.89.355-.89.888v2.49c0 .533.356.888.89.888h2.489c.533 0 .888-.355.888-.889V6.044c0-.533-.355-.888-.888-.888h-2.49zm2.4 6.044h-2.49c-1.51 0-2.666-1.156-2.666-2.667V6.044c0-1.51 1.156-2.666 2.667-2.666h2.489c1.51 0 2.666 1.155 2.666 2.666v2.49c0 1.422-1.155 2.666-2.666 2.666z"/><path d="M31.778 35.556H8.667a4.401 4.401 0 0 1-4.445-4.445v-16c0-.533.356-.889.89-.889h3.555c.533 0 .889.356.889.89 0 .532-.356.888-.89.888H6v15.111c0 1.511 1.156 2.667 2.667 2.667h23.11c1.512 0 2.667-1.156 2.667-2.667V16h-2.666c-.534 0-.89-.356-.89-.889s.356-.889.89-.889h3.555c.534 0 .89.356.89.89v16a4.401 4.401 0 0 1-4.445 4.444"/></g></svg>