<svg id="Layer_1" xmlns="http://www.w3.org/2000/svg" width="30" height="23.8" viewBox="0 0 30 23.8"><style>.st0{fill:#bca2a2}</style><title>Page 1</title><path class="st0" d="M2 1.4c-.4 0-.6.2-.6.6v19.7c0 .4.3.7.7.7H28c.4 0 .7-.3.7-.7V2c0-.4-.3-.7-.7-.7 0 .1-26 .1-26 .1zm26 22.4H2c-1.2 0-2-.9-2-2V2C0 .8.9 0 2 0h26c1.2 0 2 .9 2 2v19.7c0 1.2-.9 2.1-2 2.1z"/><path class="st0" d="M15 14.2c-.7 0-1.4-.3-1.9-.7L.2 1.2l1-1L14 12.5c.5.5 1.4.5 1.9 0L28.8.2l1 1-12.9 12.2c-.5.6-1.2.8-1.9.8"/><path class="st0" d="M12.5 11.8l.9 1L1.1 23.7l-.9-1 12.3-10.9zm5 0l12.3 10.9-.9 1-12.3-10.9.9-1z"/></svg>