<svg id="Layer_1" xmlns="http://www.w3.org/2000/svg" width="69" height="56.9" viewBox="0 0 69 56.9"><style>.st0{fill:#bca2a2}</style><title>Page 1</title><path class="st0" d="M30.1 15.5v18.6l14.1-9.2s-14.1-9.4-14.1-9.4zm-1.5 23c-.3 0-.5 0-.8-.2-.5-.2-.8-.7-.8-1.3V12.5c0-.6.3-1.1.8-1.4.5-.3 1.1-.3 1.6 0L48 23.5c.5.3.6.8.6 1.3s-.3.9-.6 1.3L29.5 38.2c-.3.2-.6.3-.9.3zM12.3 3.1c-4.5 0-8.1 3.6-8.1 8 0 0 0 .1 0 .1v26c0 4.5 3.6 8.1 8 8.1 0 0 .1 0 .1 0h45.4c4.5 0 8.1-3.6 8.1-8 0 0 0-.1 0-.1v-26c0-4.5-3.6-8.1-8-8.1 0 0-.1 0-.1 0H12.3zm45.4 45.5H12.3C6 48.6 1 43.6 1 37.3v-26C1 5 6 0 12.3 0h45.4C64 0 69 5 69 11.3v26c0 6.3-5 11.3-11.3 11.3z"/></svg>